<svg width="389" height="239" viewBox="0 0 389 239" fill="none" xmlns="http://www.w3.org/2000/svg">
<path opacity="0.1" d="M389 153.51C389.007 159.986 388.223 166.438 386.665 172.724C386.141 174.842 385.532 176.916 384.839 178.946C383.99 181.452 383.007 183.91 381.893 186.31C381.331 187.524 380.738 188.714 380.113 189.88C380.123 196.52 378.754 203.091 376.093 209.176C371.283 220.094 362.706 228.922 351.924 234.051C345.184 237.264 337.817 238.954 330.348 239H73.8507C62.4386 239.024 51.2236 236.029 41.3459 230.32L41.194 230.234C39.7871 229.412 38.4154 228.541 37.0789 227.621C34.0719 225.546 31.2468 223.22 28.634 220.667C25.0977 217.215 21.9815 213.358 19.3503 209.176C13.1703 199.374 9.89649 188.023 9.90797 176.439C3.64943 165.47 0 152.329 0 138.209C0 120.394 5.79946 104.143 15.3276 91.8404C17.3141 89.2702 19.49 86.8518 21.8372 84.6055C24.1531 82.3826 26.6423 80.3472 29.2813 78.5186C31.3927 77.054 33.5994 75.7315 35.8867 74.5597C36.8411 74.0747 37.7989 73.6162 38.7732 73.1906C39.6286 72.8112 40.4939 72.4582 41.3691 72.125C42.4193 71.7269 43.4828 71.3607 44.5594 71.0264C45.6361 70.6921 46.6984 70.3996 47.7465 70.1488C49.2877 69.7727 50.8554 69.467 52.4495 69.2317C53.7705 69.037 55.0916 68.9018 56.4127 68.7995C57.4629 68.7203 58.523 68.6774 59.5898 68.6642H60.1678C61.3435 68.6642 62.5127 68.7104 63.6719 68.7896C63.7941 68.5454 63.9262 68.298 64.0484 68.0572C64.5108 67.1763 64.9896 66.2988 65.4718 65.441C65.4707 65.4333 65.4707 65.4256 65.4718 65.4179C65.5544 65.2662 65.637 65.1177 65.7228 64.9725C66.1125 64.2698 66.5188 63.5737 66.9349 62.8842C67.1265 62.5543 67.3147 62.2442 67.5096 61.9341C67.5508 61.857 67.596 61.7821 67.645 61.7097C67.8431 61.3798 68.0446 61.0499 68.2494 60.72C69.2688 59.0924 70.3289 57.4935 71.4298 55.9231L71.7106 55.5206C71.8823 55.2765 72.0408 55.039 72.2324 54.7948C72.6881 54.1581 73.1571 53.5181 73.6294 52.8912C73.9597 52.4426 74.2899 51.9972 74.6466 51.5716C75.5053 50.4719 76.386 49.3722 77.2887 48.2725C78.1915 47.1728 79.1294 46.0874 80.1026 45.0163C80.2347 44.8678 80.3668 44.7227 80.5055 44.5775L81.9158 43.0401C81.9851 42.9676 82.0446 42.9016 82.1106 42.8356C82.279 42.6541 82.4409 42.4727 82.6225 42.2978C83.3788 41.4962 84.155 40.711 84.9344 39.9291C88.901 35.9825 93.1268 32.3047 97.5836 28.92C97.7586 28.7814 97.9369 28.6495 98.112 28.5175C98.9509 27.8874 99.8029 27.2639 100.655 26.6502C105.342 23.2916 110.241 20.2391 115.322 17.5117C115.672 17.3105 116.029 17.1224 116.389 16.9377C120.944 14.5304 125.629 12.3761 130.422 10.4847C133.034 9.45204 135.706 8.48211 138.394 7.59465C140.184 7.00741 141.981 6.44987 143.801 5.92531C146.646 5.10714 149.51 4.37364 152.394 3.72481C160.892 1.8202 169.537 0.643645 178.234 0.207977C180.877 0.0738134 183.548 0.00453323 186.25 0.000134439C199.286 -0.0171046 212.27 1.62364 224.891 4.8828C225.021 5.07978 225.2 5.24037 225.41 5.34945C225.619 5.45853 225.854 5.51251 226.09 5.50632H227.2C227.682 5.63829 228.161 5.77025 228.643 5.90881C231.336 6.683 233.99 7.52867 236.606 8.44582L237.266 8.68336C243.722 10.9765 250.003 13.733 256.061 16.9311C261.522 19.8071 266.78 23.0522 271.799 26.6436C272.571 27.1979 273.333 27.7565 274.084 28.3196C274.996 27.7367 275.923 27.1781 276.865 26.6436C280.504 24.5732 284.369 22.9272 288.385 21.7379C296.779 19.2564 305.661 18.9093 314.225 20.7284C325.206 23.0542 335.147 28.8276 343.176 37.0391C346.445 40.3988 349.355 44.0895 351.858 48.0515C352.04 48.3352 352.222 48.6222 352.397 48.9125C354.548 52.4191 356.398 56.1021 357.925 59.9216C357.981 60.0635 358.038 60.1954 358.087 60.334C359.497 63.9106 360.634 67.5886 361.489 71.3365C361.528 71.5278 361.575 71.7159 361.614 71.9072C362.414 75.5343 362.957 79.2131 363.239 82.9163C363.239 83.0483 363.239 83.1835 363.266 83.3221C363.404 85.2378 363.475 87.1733 363.477 89.1285C363.477 90.877 363.418 92.6124 363.309 94.3345C363.309 94.5225 363.282 94.7172 363.266 94.9118C363.236 95.41 363.193 95.9016 363.15 96.403C365.672 98.4354 368.033 100.66 370.211 103.057C371.173 104.106 372.105 105.195 373.005 106.323C375.748 109.757 378.159 113.444 380.205 117.332C385.79 127.863 389 140.251 389 153.51Z" fill="#6C63FF"/>
<path d="M83.9833 197.233L83.4101 197.104C89.801 168.689 105.862 142.885 128.634 124.447C145.851 110.528 166.327 101.22 188.136 97.397C209.944 93.5744 232.366 95.3639 253.292 102.597C274.218 109.83 292.958 122.268 307.748 138.741C322.538 155.214 332.892 175.179 337.834 196.757L337.261 196.887C323.732 137.5 271.673 96.0232 210.661 96.0232C150.449 96.0232 97.1733 138.588 83.9833 197.233Z" fill="#3F3D56"/>
<path d="M133.671 94.1104H131.055V197.388H133.671V94.1104Z" fill="#3F3D56"/>
<path d="M157.806 107.272C157.972 143.386 132.559 172.779 132.559 172.779C132.559 172.779 106.876 143.621 106.709 107.507C106.543 71.3937 131.956 42 131.956 42C131.956 42 157.639 71.1582 157.806 107.272Z" fill="#6C63FF"/>
<path d="M315.639 154.631H113.242V197.51H315.639V154.631Z" fill="#F2F2F2"/>
<path d="M106.779 159.33L128.811 113.22H304.77L321.221 159.33H106.779Z" fill="#3F3D56"/>
<path d="M243.376 116.157H161.712V143.177H243.376V116.157Z" fill="#F2F2F2"/>
<path d="M166.999 94.1304L154.074 121.15H251.013L243.376 94.1304H166.999Z" fill="#3F3D56"/>
<path d="M233.388 163.148H168.909V197.51H233.388V163.148Z" fill="#CCCCCC"/>
<path d="M155.543 164.323H121.173V197.51H155.543V164.323Z" fill="#CCCCCC"/>
<path d="M262.323 166.379H244.551V197.51H262.323V166.379Z" fill="#3F3D56"/>
<path d="M351 197H47V198H351V197Z" fill="#3F3D56"/>
<path d="M101.574 129.244H99.8481V197.396H101.574V129.244Z" fill="#3F3D56"/>
<path d="M117.5 137.929C117.61 161.76 100.84 181.157 100.84 181.157C100.84 181.157 83.892 161.916 83.7822 138.085C83.6723 114.253 100.442 94.8567 100.442 94.8567C100.442 94.8567 117.391 114.098 117.5 137.929Z" fill="#6C63FF"/>
<path opacity="0.1" d="M117.5 137.929C117.61 161.76 100.84 181.157 100.84 181.157C100.84 181.157 83.892 161.916 83.7822 138.085C83.6723 114.253 100.442 94.8567 100.442 94.8567C100.442 94.8567 117.391 114.098 117.5 137.929Z" fill="black"/>
<path d="M79.1391 129.244H77.4134V197.396H79.1391V129.244Z" fill="#3F3D56"/>
<path d="M95.0658 137.929C95.1757 161.76 78.4056 181.157 78.4056 181.157C78.4056 181.157 61.4573 161.916 61.3475 138.085C61.2376 114.253 78.0077 94.8567 78.0077 94.8567C78.0077 94.8567 94.9559 114.098 95.0658 137.929Z" fill="#6C63FF"/>
<path d="M290.23 168.141H281.564V176.217H290.23V168.141Z" fill="#3F3D56"/>
<path d="M301.833 168.141H293.167V176.217H301.833V168.141Z" fill="#3F3D56"/>
<path d="M290.23 179.154H281.564V187.525H290.23V179.154Z" fill="#3F3D56"/>
<path d="M301.833 179.154H293.167V187.525H301.833V179.154Z" fill="#3F3D56"/>
<path d="M175.984 123.551H169.202V129.872H175.984V123.551Z" fill="#3F3D56"/>
<path d="M185.065 123.551H178.283V129.872H185.065V123.551Z" fill="#3F3D56"/>
<path d="M175.984 132.17H169.202V138.721H175.984V132.17Z" fill="#3F3D56"/>
<path d="M185.065 132.17H178.283V138.721H185.065V132.17Z" fill="#3F3D56"/>
<path d="M226.804 123.551H220.022V129.872H226.804V123.551Z" fill="#3F3D56"/>
<path d="M235.885 123.551H229.103V129.872H235.885V123.551Z" fill="#3F3D56"/>
<path d="M226.804 132.17H220.022V138.721H226.804V132.17Z" fill="#3F3D56"/>
<path d="M235.885 132.17H229.103V138.721H235.885V132.17Z" fill="#3F3D56"/>
<path d="M201.541 123.551H194.759V129.872H201.541V123.551Z" fill="#3F3D56"/>
<path d="M210.622 123.551H203.84V129.872H210.622V123.551Z" fill="#3F3D56"/>
<path d="M201.541 132.17H194.759V138.721H201.541V132.17Z" fill="#3F3D56"/>
<path d="M210.622 132.17H203.84V138.721H210.622V132.17Z" fill="#3F3D56"/>
<path d="M252.786 169.533H248.516V173.512H252.786V169.533Z" fill="#F2F2F2"/>
<path d="M258.504 169.533H254.234V173.512H258.504V169.533Z" fill="#F2F2F2"/>
<path d="M252.786 174.959H248.516V179.084H252.786V174.959Z" fill="#F2F2F2"/>
<path d="M258.504 174.959H254.234V179.084H258.504V174.959Z" fill="#F2F2F2"/>
<path d="M259.973 185.322C260.622 185.322 261.148 184.796 261.148 184.147C261.148 183.498 260.622 182.972 259.973 182.972C259.324 182.972 258.798 183.498 258.798 184.147C258.798 184.796 259.324 185.322 259.973 185.322Z" fill="#F2F2F2"/>
<path d="M233.535 166.819H168.909V167.407H233.535V166.819Z" fill="#F2F2F2"/>
<path d="M233.535 169.462H168.909V170.05H233.535V169.462Z" fill="#F2F2F2"/>
<path d="M233.535 172.106H168.909V172.693H233.535V172.106Z" fill="#F2F2F2"/>
<path d="M233.535 174.749H168.909V175.336H233.535V174.749Z" fill="#F2F2F2"/>
<path d="M233.535 177.392H168.909V177.979H233.535V177.392Z" fill="#F2F2F2"/>
<path d="M233.535 180.035H168.909V180.623H233.535V180.035Z" fill="#F2F2F2"/>
<path d="M233.535 182.679H168.909V183.266H233.535V182.679Z" fill="#F2F2F2"/>
<path d="M233.535 185.322H168.909V185.909H233.535V185.322Z" fill="#F2F2F2"/>
<path d="M233.535 187.965H168.909V188.552H233.535V187.965Z" fill="#F2F2F2"/>
<path d="M233.535 190.608H168.909V191.196H233.535V190.608Z" fill="#F2F2F2"/>
<path d="M233.535 193.251H168.909V193.839H233.535V193.251Z" fill="#F2F2F2"/>
<path d="M155.543 166.819H121.173V167.407H155.543V166.819Z" fill="#F2F2F2"/>
<path d="M155.543 169.462H121.173V170.05H155.543V169.462Z" fill="#F2F2F2"/>
<path d="M155.543 172.106H121.173V172.693H155.543V172.106Z" fill="#F2F2F2"/>
<path d="M155.543 174.749H121.173V175.336H155.543V174.749Z" fill="#F2F2F2"/>
<path d="M155.543 177.392H121.173V177.979H155.543V177.392Z" fill="#F2F2F2"/>
<path d="M155.543 180.035H121.173V180.623H155.543V180.035Z" fill="#F2F2F2"/>
<path d="M155.543 182.679H121.173V183.266H155.543V182.679Z" fill="#F2F2F2"/>
<path d="M155.543 185.322H121.173V185.909H155.543V185.322Z" fill="#F2F2F2"/>
<path d="M155.543 187.965H121.173V188.552H155.543V187.965Z" fill="#F2F2F2"/>
<path d="M155.543 190.608H121.173V191.196H155.543V190.608Z" fill="#F2F2F2"/>
<path d="M155.543 193.251H121.173V193.839H155.543V193.251Z" fill="#F2F2F2"/>
<path d="M304.624 136.863C317.765 136.863 328.418 126.212 328.418 113.073C328.418 99.9352 317.765 89.2844 304.624 89.2844C291.482 89.2844 280.829 99.9352 280.829 113.073C280.829 126.212 291.482 136.863 304.624 136.863Z" fill="#6C63FF"/>
<path d="M319.605 110.724H306.974V98.0952H302.274V110.724H289.642V115.423H302.274V128.052H306.974V115.423H319.605V110.724Z" fill="white"/>
</svg>
